<svg width="24" height="24" viewBox="0 0 24 24" fill="none" xmlns="http://www.w3.org/2000/svg">
<path d="M22.665 14.8434C23.0094 14.3908 23.2 13.8363 23.2 13.2594C23.2 12.3441 22.6855 11.4777 21.8573 10.9946C21.644 10.8702 21.4013 10.8047 21.1541 10.805H16.2382L16.3612 8.29954C16.3899 7.69408 16.1747 7.1192 15.7565 6.6809C15.5512 6.46487 15.3036 6.29299 15.0289 6.17587C14.7543 6.05876 14.4584 5.99891 14.1595 6.00002C13.0935 6.00002 12.1505 6.71352 11.8676 7.73485L10.1067 14.0749H10.1005V22.8H19.7827C19.9713 22.8 20.1558 22.7633 20.3259 22.6899C21.3017 22.2761 21.9311 21.3281 21.9311 20.2762C21.9311 20.0194 21.8942 19.7666 21.8204 19.522C22.1648 19.0694 22.3554 18.5149 22.3554 17.938C22.3554 17.6811 22.3185 17.4283 22.2447 17.1837C22.5891 16.7311 22.7798 16.1766 22.7798 15.5997C22.7757 15.3429 22.7388 15.088 22.665 14.8434ZM6.8 14.7272V22.1477C6.8 22.5085 7.09315 22.8 7.456 22.8H8.7885V14.0749H7.456C7.09315 14.0749 6.8 14.3664 6.8 14.7272Z" fill="#444444"/>
<path d="M4.17 1.2C2.52975 1.2 1.2 2.51999 1.2 4.1482C1.2 7.0964 4.71 9.77659 6.6 10.4C8.49 9.77659 12 7.0964 12 4.1482C12 2.51999 10.6702 1.2 9.03 1.2C8.0256 1.2 7.1373 1.69503 6.6 2.45272C6.32613 2.06548 5.9623 1.74946 5.53931 1.5314C5.11632 1.31334 4.64663 1.19966 4.17 1.2Z" fill="#444444"/>
</svg>
